# xmcd CD database file
#
# Track frame offsets:
#	150
#	9913
#	30713
#	39918
#	60630
#	75508
#	90565
#
# Disc length: 1376 seconds
#
# Revision: 1
# Processed by: cddbd v1.5.2PL0 Copyright (c) Steve Scherf et al.
# Submitted via: CDex 1.70beta2
#
DISCID=40055e07
DTITLE=伊藤真澄 - Sister Princess
DYEAR=2001
DGENRE=Anime
TTITLE0=Pure Melody
TTITLE1=DREAMIN'
TTITLE2=告白
TTITLE3=LOVE BLOOM
TTITLE4=sentimental
TTITLE5=Melody (unplugged)
TTITLE6=Good night
EXTD=YEAR: 2001
EXTT0=
EXTT1=
EXTT2=
EXTT3=
EXTT4=
EXTT5=
EXTT6=
PLAYORDER=
